<svg width="12" height="12" viewBox="0 0 12 12" fill="none" xmlns="http://www.w3.org/2000/svg">
<path fill-rule="evenodd" clip-rule="evenodd" d="M0.335004 10.0461C-0.111933 10.4931 -0.111932 11.2177 0.335004 11.6646C0.78194 12.1116 1.50657 12.1116 1.9535 11.6646L5.99984 7.6183L10.0463 11.6648C10.4933 12.1117 11.2179 12.1117 11.6648 11.6648C12.1118 11.2178 12.1118 10.4932 11.6648 10.0463L7.61834 5.9998L11.6645 1.95364C12.1114 1.5067 12.1114 0.782077 11.6645 0.335141C11.2176 -0.111795 10.4929 -0.111795 10.046 0.335141L5.99984 4.3813L1.95384 0.335295C1.5069 -0.111641 0.782272 -0.111641 0.335335 0.335295C-0.111601 0.782231 -0.111601 1.50686 0.335335 1.95379L4.38134 5.9998L0.335004 10.0461Z" fill="white"/>
</svg>
