<svg width="37" height="36" viewBox="0 0 37 36" fill="none" xmlns="http://www.w3.org/2000/svg">
<path fill-rule="evenodd" clip-rule="evenodd" d="M1.50542 30.1387C0.164615 31.4795 0.164614 33.6533 1.50542 34.9941C2.84623 36.335 5.02011 36.335 6.36092 34.9942L18.4996 22.8555L30.6387 34.9946C31.9795 36.3354 34.1534 36.3354 35.4942 34.9946C36.835 33.6538 36.835 31.4799 35.4942 30.1391L23.3551 18L35.4939 5.86118C36.8347 4.52037 36.8347 2.34649 35.4939 1.00568C34.1531 -0.335125 31.9792 -0.335126 30.6384 1.00568L18.4996 13.1445L6.36119 1.00615C5.02038 -0.334663 2.8465 -0.334663 1.50569 1.00615C0.164876 2.34695 0.164875 4.52083 1.50569 5.86164L13.6441 18L1.50542 30.1387Z" fill="#C7302B"/>
</svg>
